Coordinates
version=1
nRows=14
nColumns=24
inDegrees=yes

Units are S.I. units (second, meters, Newtons, ...)
Angles are in degrees.

endheader
time	pelvis_tilt	pelvis_list	pelvis_rotation	pelvis_tx	pelvis_ty	pelvis_tz	hip_flexion_r	hip_adduction_r	hip_rotation_r	knee_angle_r	ankle_angle_r	subtalar_angle_r	mtp_angle_r	hip_flexion_l	hip_adduction_l	hip_rotation_l	knee_angle_l	ankle_angle_l	subtalar_angle_l	mtp_angle_l	lumbar_extension	lumbar_bending	lumbar_rotation
      1.85000000	     14.19037474	      2.70039009	     -3.51878628	      0.47858874	      0.95241312	      0.25043051	      8.41458062	     -6.41525508	     -1.85001392	    -67.28949793	     18.69757223	      5.90967010	     49.89523395	     -6.35333632	      7.57793811	     -7.84315299	    -16.49672803	     21.13638281	      4.86802415	     21.85821285	    -30.84986432	     -5.62640999	      7.41290507
      1.85500000	     14.34487187	      2.65802169	     -3.37095796	      0.48494622	      0.95311354	      0.25003915	      8.81222460	     -6.41276368	     -2.10592711	    -66.54908132	     19.07323995	      5.94604619	     49.76509325	     -7.23260344	      7.54670068	     -7.81016948	    -15.97476360	     21.29615005	      5.31379576	     21.79162822	    -31.04674950	     -5.44126862	      7.14938386
      1.86000000	     14.49822891	      2.62279001	     -3.21841218	      0.49130040	      0.95373229	      0.24966164	      9.18905963	     -6.41174978	     -2.35419025	    -65.74800828	     19.43140224	      5.99174538	     49.59140633	     -8.10287870	      7.51740842	     -7.77512280	    -15.46395554	     21.45493225	      5.74998650	     21.69117416	    -31.24318078	     -5.26411647	      6.88469508
      1.86500000	     14.64576342	      2.58453913	     -3.07079961	      0.49765831	      0.95426615	      0.24929953	      9.55163575	     -6.40555616	     -2.60299750	    -64.88711884	     19.76560466	      6.02667122	     49.37379115	     -8.95817631	      7.48204862	     -7.72690258	    -14.96860214	     21.61291928	      6.17294160	     21.55087516	    -31.42898679	     -5.08535781	      6.62189613
      1.87000000	     14.82799046	      2.57249413	     -2.95985701	      0.50402164	      0.95475892	      0.24898622	      9.86415582	     -6.42272517	     -2.80607825	    -63.98456184	     20.15821773	      6.11066891	     48.28525502	     -9.85990109	      7.48336064	     -7.69161568	    -14.45249496	     21.78831490	      6.57349947	     20.61504444	    -31.64701650	     -4.95850749	      6.42131346
      1.87500000	     14.90706456	      2.53069569	     -2.77480964	      0.51036876	      0.95502592	      0.24860838	     10.25572642	     -6.40490331	     -3.07575516	    -63.01026889	     20.43646630	      6.16569771	     48.23705082	    -10.58829189	      7.42012970	     -7.62544778	    -14.06184056	     21.98248468	      7.01436286	     20.55517433	    -31.76083969	     -4.75335600	      6.10926192
      1.88000000	     15.08310703	      2.49833731	     -2.61199863	      0.51670519	      0.95536844	      0.24828783	     10.51130206	     -6.39336825	     -3.32473586	    -61.96336524	     20.67865785	      6.16027940	     48.10731514	    -11.44519677	      7.37607595	     -7.53574863	    -13.61675383	     22.15103138	      7.39507543	     20.39830120	    -31.98165464	     -4.57659874	      5.81882919
      1.88500000	     15.24277487	      2.47069671	     -2.45254936	      0.52303697	      0.95560751	      0.24797395	     10.76529717	     -6.38501143	     -3.56647157	    -60.86492189	     20.90582149	      6.17785894	     47.92420655	    -12.26673144	      7.33348730	     -7.44777406	    -13.20332882	     22.31874257	      7.75450114	     20.16355407	    -32.18232922	     -4.40649765	      5.54491105
      1.89000000	     15.38487074	      2.46623257	     -2.31594567	      0.52938176	      0.95572969	      0.24769979	     11.02670497	     -6.39771780	     -3.78163074	    -59.73559334	     21.19538263	      6.27607156	     46.91669356	    -13.05852510	      7.31653670	     -7.36104132	    -12.81866908	     22.59054911	      8.15600328	     18.53149952	    -32.35848432	     -4.27638462	      5.30339014
      1.89500000	     15.50276612	      2.42667966	     -2.14637889	      0.53570731	      0.95576562	      0.24742234	     11.27604651	     -6.36089495	     -4.01740653	    -58.52027120	     21.34081597	      6.25105532	     46.88655642	    -13.79051693	      7.24533516	     -7.27662988	    -12.49071279	     22.77293299	      8.49907314	     18.44799022	    -32.51486767	     -4.08660187	      5.00807562
      1.90000000	     15.67178326	      2.40300836	     -1.98805577	      0.54200288	      0.95579832	      0.24718184	     11.44531372	     -6.34089358	     -4.24492257	    -57.24825799	     21.46961069	      6.23958199	     46.80053932	    -14.57933345	      7.19332242	     -7.15307694	    -12.15343072	     22.94974856	      8.80088571	     18.25342018	    -32.73047430	     -3.92806215	      4.73045765
      1.90500000	     15.83233094	      2.37826649	     -1.82568296	      0.54829426	      0.95575897	      0.24693911	     11.59469524	     -6.31512914	     -4.46798848	    -55.91665951	     21.57231165	      6.22526951	     46.65555036	    -15.34106436	      7.13616573	     -7.01682569	    -11.85179677	     23.13932245	      9.08562516	     17.93053690	    -32.93530151	     -3.76747400	      4.47308793
      1.91000000	     15.96243704	      2.34167462	     -1.66975471	      0.55462370	      0.95561746	      0.24674267	     11.75092509	     -6.27079992	     -4.69340491	    -54.53233636	     21.63102121	      6.21096971	     46.50166930	    -16.05592390	      7.06213021	     -6.91577047	    -11.57960224	     23.34612630	      9.33821954	     17.58757915	    -33.10414036	     -3.59536962	      4.18850172
      1.91500000	     16.08072958	      2.32594612	     -1.53001859	      0.56090820	      0.95538463	      0.24658695	     11.90268455	     -6.23391370	     -4.87018944	    -53.10504702	     21.74418874	      6.26423384	     45.67181729	    -16.73576791	      7.00715469	     -6.79128367	    -11.36233834	     23.76085470	      9.71952856	     14.96519247	    -33.26103966	     -3.46824601	      3.99308186
